<?xml version="1.0" encoding="UTF-8" standalone="no"?>
<svg
   xmlns:dc="http://purl.org/dc/elements/1.1/"
   xmlns:cc="http://creativecommons.org/ns#"
   xmlns:rdf="http://www.w3.org/1999/02/22-rdf-syntax-ns#"
   xmlns:svg="http://www.w3.org/2000/svg"
   xmlns="http://www.w3.org/2000/svg"
   viewBox="0 0 816 1056"
   height="1056"
   width="816"
   xml:space="preserve"
   id="svg2"
   version="1.1"><metadata
     id="metadata8"><rdf:RDF><cc:Work
         rdf:about=""><dc:format>image/svg+xml</dc:format><dc:type
           rdf:resource="http://purl.org/dc/dcmitype/StillImage" /></cc:Work></rdf:RDF></metadata><defs
     id="defs6"><clipPath
       id="clipPath18"
       clipPathUnits="userSpaceOnUse"><path
         id="path16"
         d="M 0,792 H 612 V 0 H 0 Z" /></clipPath></defs><g
     transform="matrix(1.3333333,0,0,-1.3333333,0,1056)"
     id="g10"><g
       id="g12"><g
         clip-path="url(#clipPath18)"
         id="g14"><g
           transform="translate(521.5458,513.3987)"
           id="g20"><path
             id="path22"
             style="fill:#181a3c;fill-opacity:1;fill-rule:nonzero;stroke:none"
             d="m 0,0 c -1.88,-38.078 -6.502,-75.756 -15.531,-112.822 -6.973,-28.624 -16.406,-56.373 -30.538,-82.354 -1.006,-1.849 -1.666,-4.041 -3.88,-5.298 -0.594,0.631 -1.276,1.214 -1.788,1.92 -16.398,22.655 -202.423,279.605 -243.086,335.765 11.542,1.333 22.024,2.476 32.487,3.767 14.317,1.766 28.453,4.5 42.298,8.578 3.068,0.905 5.88,0.81 8.922,-0.057 24.025,-6.846 48.615,-10.174 73.497,-11.728 44.337,-2.769 88.231,0.631 132.091,9.386 2.125,-6.408 2.118,-13.087 2.697,-19.582 C 0.951,85.121 2.104,42.604 0,0 m 7.754,160.283 c -0.176,1.432 -0.727,4.61 -0.727,4.61 0,0 -29.895,-7.693 -44.694,-9.693 -32.253,-4.358 -64.631,-6.096 -97.165,-4.15 -26.518,1.586 -52.691,5.188 -78.147,13.095 -2.153,0.669 -4.197,0.274 -6.349,-0.352 -42.053,-12.235 -85.064,-14.984 -128.557,-12.816 -27.409,1.367 -54.601,4.332 -81.245,11.242 -2.766,0.718 -9.058,2.48 -9.058,2.48 0,0 -2.176,-14.885 -2.996,-22.135 -2.716,-24.021 -4.502,-48.129 -5.098,-72.297 -1.105,-44.799 0.69,-75.205 1.644,-87.399 4.334,-55.384 13.727,-109.604 35.512,-161.149 18.721,-44.3 49.161,-79.396 85.706,-109.7 31.515,-26.132 65.986,-47.646 103.026,-65.064 1.45,-0.682 2.801,-1.573 4.198,-2.366 h 1.084 c 15.873,8.121 31.884,15.97 47.18,25.186 35.9,21.632 68.884,46.848 97.495,77.666 33.77,36.374 53.901,79.743 66.359,127.195 9.6,36.563 14.905,73.768 17.591,111.434 1.353,2.188 3.818,55.515 -0.061,115.549 -1.268,19.62 -3.306,39.158 -5.698,58.664" /></g><g
           transform="translate(535.0593,499.4685)"
           id="g24"><path
             id="path26"
             style="fill:#f4f4f4;fill-opacity:1;fill-rule:nonzero;stroke:none"
             d="m 0,0 c -2.686,-37.665 -7.991,-74.871 -17.591,-111.433 -12.459,-47.452 -32.589,-90.822 -66.359,-127.196 -28.612,-30.817 -61.596,-56.034 -97.495,-77.665 -15.296,-9.217 -31.308,-17.065 -47.181,-25.187 h -1.083 c -1.397,0.793 -2.749,1.685 -4.198,2.366 -37.041,17.418 -71.511,38.932 -103.026,65.065 -36.545,30.303 -66.985,65.399 -85.707,109.699 -21.784,51.545 -31.178,105.765 -35.511,161.149 -0.954,12.194 -2.749,42.6 -1.645,87.399 0.596,24.168 2.383,48.276 5.099,72.297 0.82,7.25 2.996,22.135 2.996,22.135 0,0 6.291,-1.762 9.058,-2.479 26.643,-6.911 53.835,-9.876 81.244,-11.243 43.493,-2.168 86.504,0.581 128.558,12.817 2.151,0.625 4.196,1.02 6.349,0.352 25.456,-7.908 51.628,-11.51 78.147,-13.096 32.533,-1.946 64.911,-0.208 97.164,4.151 14.8,1.999 44.695,9.693 44.695,9.693 0,0 0.55,-3.179 0.726,-4.61 2.393,-19.507 4.431,-39.045 5.698,-58.665 C 3.817,55.515 1.353,2.188 0,0 m 11.042,176.275 c -0.211,1.714 -0.703,4.596 -0.849,5.439 l -3.132,18.074 -17.765,-4.571 c -0.29,-0.074 -29.108,-7.469 -42.744,-9.311 -23.518,-3.178 -46.426,-4.79 -68.088,-4.79 -8.67,0 -17.35,0.256 -25.798,0.762 -29.011,1.735 -52.568,5.663 -74.136,12.363 -2.371,0.736 -4.847,1.11 -7.36,1.11 -3.563,0 -6.543,-0.734 -8.741,-1.374 -29.641,-8.624 -61.562,-12.816 -97.587,-12.816 -8.155,0 -16.7,0.22 -25.398,0.653 -30.83,1.537 -55.563,4.944 -77.837,10.721 -2.666,0.692 -8.721,2.389 -8.744,2.395 l -18.53,5.189 -2.784,-19.041 c -0.09,-0.619 -2.226,-15.243 -3.067,-22.682 -2.869,-25.375 -4.619,-50.199 -5.2,-73.781 -1.143,-46.337 0.802,-77.772 1.691,-89.137 5.198,-66.44 16.89,-119.321 36.795,-166.419 17.995,-42.579 47.595,-80.569 90.494,-116.14 31.815,-26.381 67.689,-49.042 106.627,-67.352 0.245,-0.116 0.917,-0.518 1.409,-0.811 0.543,-0.323 1.086,-0.646 1.635,-0.957 l 3.887,-2.207 h 4.471 1.083 4.079 l 3.632,1.857 c 2.612,1.337 5.228,2.666 7.844,3.995 13.31,6.763 27.073,13.755 40.363,21.763 40.153,24.195 73.244,50.574 101.163,80.647 32.872,35.406 55.876,79.373 70.327,134.414 9.085,34.603 14.979,71.656 18.01,113.239 1.003,5.313 1.741,15.568 2.065,38.334 0.215,15.132 0.238,45.751 -2.026,80.799 -1.159,17.937 -2.998,36.886 -5.789,59.635" /></g><g
           transform="translate(516.0182,660.5557)"
           id="g28"><path
             id="path30"
             style="fill:#f4f4f4;fill-opacity:1;fill-rule:nonzero;stroke:none"
             d="m 0,0 c -43.861,-8.755 -87.755,-12.155 -132.092,-9.386 -24.882,1.554 -49.471,4.882 -73.496,11.728 -3.042,0.867 -5.854,0.961 -8.923,0.057 -13.844,-4.078 -27.98,-6.812 -42.297,-8.578 -10.464,-1.291 -20.945,-2.434 -32.487,-3.767 40.663,-56.16 226.688,-313.11 243.086,-335.765 0.512,-0.706 1.194,-1.289 1.787,-1.92 2.215,1.257 2.875,3.449 3.881,5.298 14.131,25.981 23.565,53.73 30.537,82.354 9.029,37.066 13.652,74.744 15.532,112.822 2.103,42.604 0.951,85.121 -2.831,127.575 C 2.118,-13.087 2.124,-6.408 0,0" /></g><g
           transform="translate(418.8084,575.2813)"
           id="g32"><path
             id="path34"
             style="fill:#181a3c;fill-opacity:1;fill-rule:nonzero;stroke:none"
             d="m 0,0 c -1.165,1.564 -2.298,3.148 -3.594,4.617 -3.388,3.842 -6.726,7.729 -10.08,11.601 -0.577,0.666 -1.16,1.327 -1.868,1.852 -2.022,1.499 -4.222,1.77 -6.481,0.675 -2.194,-1.065 -3.373,-2.891 -3.51,-5.349 -0.097,-1.745 0.579,-3.233 1.561,-4.621 1.693,-2.394 3.574,-4.635 5.545,-6.803 1.472,-1.62 2.936,-3.248 4.449,-4.922 -1.059,-1.508 -2.25,-2.798 -3.559,-3.953 -4.131,-3.643 -8.306,-7.237 -12.466,-10.848 0.56,-1.035 0.937,-2.184 1.075,-3.407 h -1.18 -16.304 -1.242 c 0.253,2.241 1.298,4.238 2.839,5.721 -1.186,1.023 -3.741,3.23 -4.982,4.321 -2.346,2.063 -4.767,4.045 -6.837,6.4 -0.408,0.463 -0.944,0.858 -1.052,1.639 0.547,0.615 1.121,1.274 1.709,1.92 2.759,3.033 5.558,6.032 7.937,9.387 0.624,0.88 1.205,1.775 1.516,2.823 0.793,2.675 -0.241,5.532 -2.568,7.06 -2.285,1.499 -5.211,1.32 -7.362,-0.453 -0.681,-0.561 -1.261,-1.221 -1.837,-1.886 -2.559,-2.95 -5.127,-5.892 -7.683,-8.844 -2.012,-2.324 -4.053,-4.623 -5.818,-7.151 -2.56,-3.665 -2.005,-7.732 1.464,-10.513 1.142,-0.916 2.279,-1.84 3.445,-2.726 3.112,-2.363 6.068,-4.915 9.05,-7.435 0.152,-0.129 0.551,-0.465 0.551,-0.465 0,0 -0.951,-0.259 -1.271,-0.364 -2.803,-0.919 -4.496,-3.329 -4.38,-6.224 0.114,-2.829 2.093,-5.12 4.954,-5.773 1.204,-0.274 2.282,-0.448 3.501,-0.471 0.58,-0.011 1.865,0 1.865,0 0,0 1.949,0.056 2.924,0.056 10.143,-0.005 20.287,-0.016 30.43,-0.026 0.293,0.026 1.075,0.165 1.628,0.332 2.595,0.786 4.121,2.806 4.659,5.377 0.503,2.406 -0.271,4.428 -2.268,5.931 -0.15,0.113 -0.667,0.393 -0.667,0.393 0,0 4.387,3.645 6.496,5.36 2.763,2.247 5.573,4.437 8.368,6.645 1.722,1.36 2.635,3.139 2.594,5.322 C 1.519,-3.069 1.057,-1.42 0,0" /></g><g
           transform="translate(257.3261,534.9213)"
           id="g36"><path
             id="path38"
             style="fill:#181a3c;fill-opacity:1;fill-rule:nonzero;stroke:none"
             d="m 0,0 c -0.075,-9.855 -7.642,-17.101 -16.965,-17.165 -9.174,-0.063 -17.201,7.583 -17,16.928 -0.428,8.472 7.275,17.135 16.772,17.1 C -7.468,16.828 0.067,8.742 0,0 m -18.19,26.149 c -0.157,-0.007 -0.312,-0.02 -0.469,-0.03 -0.283,-0.019 -0.567,-0.038 -0.848,-0.067 -0.101,-0.01 -0.201,-0.024 -0.302,-0.035 -0.333,-0.038 -0.666,-0.079 -0.995,-0.131 -0.044,-0.007 -0.086,-0.015 -0.129,-0.022 -11.963,-1.938 -21.087,-12.609 -21.152,-25.17 -0.074,-14.284 11.568,-25.404 25.192,-25.551 0.285,-0.002 0.568,0.006 0.851,0.013 0.001,0 0.002,0 0.002,0 0.19,0.004 0.381,0.006 0.57,0.014 0.304,0.013 0.605,0.035 0.905,0.058 0.125,0.01 0.25,0.017 0.375,0.028 0.365,0.034 0.727,0.077 1.087,0.125 0.057,0.008 0.115,0.014 0.173,0.022 1.034,0.145 2.044,0.357 3.031,0.619 0.132,0.035 0.267,0.066 0.398,0.103 0.021,0.006 0.041,0.013 0.062,0.019 10.676,3.058 18.312,12.772 18.465,24.259 0.097,7.275 -2.646,13.66 -8.022,18.756 -4.965,4.707 -10.905,6.942 -17.698,7.018 -0.002,0 -0.005,0 -0.007,0 -0.262,0.004 -0.522,-0.005 -0.782,-0.009 -0.236,-0.005 -0.473,-0.008 -0.707,-0.019" /></g><g
           transform="translate(371.5026,375.2987)"
           id="g40"><path
             id="path42"
             style="fill:#181a3c;fill-opacity:1;fill-rule:nonzero;stroke:none"
             d="m 0,0 c 6.732,0.039 12.645,-5.904 12.105,-12.294 0.5,-6.325 -5.224,-12.305 -12.003,-12.199 -6.942,0.108 -12.082,4.975 -12.254,12.042 C -12.319,-5.541 -6.712,-0.039 0,0 M -9.075,3.868 C -9.214,3.782 -9.351,3.691 -9.488,3.601 -9.601,3.526 -9.715,3.453 -9.826,3.377 -9.962,3.283 -10.096,3.185 -10.23,3.088 -10.338,3.009 -10.448,2.931 -10.555,2.85 c -0.133,-0.1 -0.262,-0.205 -0.392,-0.309 -0.104,-0.083 -0.209,-0.165 -0.311,-0.25 -0.128,-0.107 -0.254,-0.218 -0.38,-0.329 -0.099,-0.087 -0.199,-0.172 -0.296,-0.261 -0.125,-0.115 -0.246,-0.233 -0.368,-0.35 -0.093,-0.09 -0.188,-0.178 -0.279,-0.27 -0.121,-0.121 -0.237,-0.246 -0.355,-0.37 -0.087,-0.093 -0.177,-0.184 -0.263,-0.279 -0.115,-0.126 -0.225,-0.256 -0.337,-0.386 -0.083,-0.096 -0.168,-0.192 -0.25,-0.29 -0.109,-0.132 -0.213,-0.267 -0.318,-0.402 -0.078,-0.1 -0.158,-0.198 -0.234,-0.299 -0.104,-0.137 -0.202,-0.278 -0.301,-0.418 -0.073,-0.103 -0.147,-0.204 -0.218,-0.308 -0.096,-0.141 -0.187,-0.287 -0.279,-0.431 -0.068,-0.105 -0.137,-0.209 -0.203,-0.316 -0.089,-0.146 -0.173,-0.296 -0.258,-0.444 -0.061,-0.109 -0.126,-0.216 -0.186,-0.325 -0.081,-0.15 -0.157,-0.303 -0.235,-0.455 -0.056,-0.111 -0.115,-0.221 -0.169,-0.333 -0.074,-0.154 -0.142,-0.312 -0.212,-0.468 -0.05,-0.113 -0.103,-0.224 -0.151,-0.338 -0.066,-0.157 -0.125,-0.317 -0.187,-0.476 -0.044,-0.116 -0.092,-0.23 -0.134,-0.347 -0.057,-0.16 -0.108,-0.323 -0.16,-0.485 -0.039,-0.117 -0.08,-0.234 -0.116,-0.352 -0.049,-0.165 -0.091,-0.332 -0.135,-0.498 -0.032,-0.118 -0.067,-0.234 -0.095,-0.353 -0.041,-0.171 -0.075,-0.344 -0.11,-0.517 -0.024,-0.115 -0.052,-0.23 -0.073,-0.345 -0.032,-0.176 -0.055,-0.352 -0.081,-0.529 -0.017,-0.115 -0.038,-0.229 -0.053,-0.345 -0.022,-0.183 -0.036,-0.366 -0.052,-0.55 -0.01,-0.111 -0.024,-0.221 -0.031,-0.332 -0.013,-0.198 -0.016,-0.396 -0.021,-0.595 -0.003,-0.098 -0.01,-0.196 -0.01,-0.295 -0.002,-0.297 0.006,-0.596 0.022,-0.895 -0.489,-9.526 8.026,-18.12 17.795,-18.271 0.211,-0.004 0.419,0.003 0.628,0.007 0.156,0.003 0.312,0.005 0.467,0.012 0.162,0.008 0.323,0.02 0.484,0.032 0.153,0.011 0.306,0.021 0.458,0.036 0.16,0.016 0.319,0.037 0.478,0.057 0.15,0.019 0.3,0.037 0.449,0.06 0.158,0.024 0.314,0.053 0.47,0.081 0.148,0.027 0.296,0.053 0.442,0.083 0.155,0.032 0.309,0.069 0.462,0.105 0.144,0.034 0.289,0.067 0.431,0.104 0.154,0.041 0.305,0.086 0.457,0.13 0.14,0.04 0.281,0.08 0.419,0.124 0.152,0.048 0.301,0.101 0.451,0.153 0.135,0.047 0.271,0.093 0.405,0.143 0.15,0.055 0.297,0.116 0.444,0.176 0.131,0.053 0.263,0.104 0.393,0.161 0.147,0.063 0.29,0.131 0.435,0.198 0.127,0.059 0.255,0.116 0.381,0.178 0.143,0.071 0.284,0.146 0.426,0.22 0.122,0.064 0.245,0.127 0.366,0.194 0.141,0.078 0.28,0.161 0.418,0.242 0.118,0.069 0.236,0.137 0.352,0.208 0.138,0.086 0.274,0.176 0.41,0.265 0.112,0.073 0.225,0.145 0.335,0.221 0.135,0.092 0.266,0.188 0.398,0.284 0.108,0.078 0.217,0.155 0.323,0.235 0.13,0.098 0.257,0.201 0.384,0.303 0.104,0.082 0.208,0.163 0.31,0.248 0.127,0.105 0.25,0.215 0.374,0.324 0.097,0.085 0.196,0.169 0.291,0.256 0.124,0.112 0.243,0.229 0.363,0.344 0.092,0.089 0.186,0.176 0.276,0.266 0.118,0.118 0.231,0.239 0.345,0.36 0.088,0.092 0.177,0.183 0.263,0.277 0.114,0.124 0.222,0.252 0.332,0.378 0.082,0.095 0.166,0.188 0.246,0.284 0.107,0.129 0.21,0.262 0.314,0.393 0.077,0.099 0.157,0.195 0.233,0.295 0.101,0.133 0.197,0.27 0.294,0.405 0.073,0.102 0.148,0.202 0.219,0.304 0.095,0.139 0.186,0.281 0.277,0.421 0.068,0.104 0.137,0.205 0.202,0.31 0.09,0.143 0.173,0.288 0.258,0.433 0.062,0.106 0.127,0.21 0.187,0.317 0.083,0.147 0.16,0.297 0.238,0.445 0.057,0.108 0.116,0.215 0.171,0.323 0.075,0.15 0.144,0.302 0.215,0.453 0.052,0.111 0.107,0.221 0.157,0.333 0.067,0.151 0.128,0.304 0.191,0.457 0.048,0.114 0.098,0.227 0.143,0.343 0.061,0.156 0.115,0.314 0.172,0.472 0.04,0.114 0.084,0.226 0.122,0.34 0.054,0.16 0.101,0.322 0.15,0.484 0.035,0.114 0.073,0.227 0.105,0.341 0.045,0.162 0.084,0.325 0.125,0.487 0.029,0.116 0.062,0.232 0.088,0.348 0.038,0.166 0.069,0.332 0.101,0.498 0.023,0.116 0.05,0.23 0.07,0.346 0.032,0.178 0.055,0.356 0.081,0.535 0.015,0.105 0.034,0.21 0.047,0.316 0.025,0.199 0.041,0.398 0.058,0.598 0.008,0.086 0.019,0.172 0.025,0.258 0.021,0.287 0.033,0.574 0.038,0.861 0.176,10.184 -8.545,18.509 -18.183,18.694 -0.003,0 -0.007,0 -0.01,0 -0.2,0.004 -0.4,-0.001 -0.6,-0.005 L -0.147,6.587 C -0.295,6.585 -0.444,6.582 -0.592,6.575 -0.746,6.568 -0.9,6.556 -1.054,6.545 -1.202,6.533 -1.349,6.523 -1.496,6.507 -1.65,6.492 -1.803,6.472 -1.956,6.451 -2.101,6.432 -2.247,6.414 -2.391,6.391 -2.544,6.367 -2.696,6.338 -2.848,6.31 -2.992,6.283 -3.135,6.257 -3.277,6.227 -3.429,6.194 -3.58,6.157 -3.731,6.121 -3.872,6.087 -4.012,6.054 -4.152,6.016 -4.303,5.976 -4.452,5.931 -4.602,5.886 -4.74,5.845 -4.877,5.805 -5.014,5.761 -5.163,5.713 -5.311,5.66 -5.459,5.608 -5.593,5.56 -5.728,5.514 -5.861,5.463 -6.009,5.407 -6.156,5.346 -6.302,5.285 -6.432,5.232 -6.563,5.18 -6.692,5.123 -6.838,5.059 -6.983,4.99 -7.129,4.922 -7.254,4.863 -7.381,4.805 -7.506,4.743 -7.65,4.671 -7.793,4.595 -7.935,4.52 -8.057,4.455 -8.18,4.392 -8.3,4.324 -8.442,4.245 -8.581,4.162 -8.721,4.079 -8.839,4.009 -8.958,3.941 -9.075,3.868" /></g><g
           transform="translate(223.3616,534.6839)"
           id="g44"><path
             id="path46"
             style="fill:#f4f4f4;fill-opacity:1;fill-rule:nonzero;stroke:none"
             d="m 0,0 c -0.201,-9.345 7.826,-16.99 17,-16.927 9.323,0.064 16.889,7.309 16.965,17.164 C 34.031,8.98 26.497,17.065 16.771,17.101 7.274,17.135 -0.429,8.473 0,0" /></g><g
           transform="translate(371.6051,350.8055)"
           id="g48"><path
             id="path50"
             style="fill:#f4f4f4;fill-opacity:1;fill-rule:nonzero;stroke:none"
             d="M 0,0 C 6.778,-0.106 12.502,5.874 12.002,12.2 12.543,18.589 6.629,24.532 -0.102,24.493 -6.814,24.455 -12.422,18.952 -12.254,12.042 -12.083,4.975 -6.943,0.108 0,0" /></g><g
           transform="translate(371.154,554.1233)"
           id="g52"><path
             id="path54"
             style="fill:#181a3c;fill-opacity:1;fill-rule:nonzero;stroke:none"
             d="m 0,0 h 1.243 16.304 1.179 C 18.588,1.223 18.212,2.372 17.652,3.407 16.058,6.353 12.948,8.357 9.363,8.357 6.827,8.357 4.533,7.349 2.84,5.721 1.298,4.238 0.254,2.241 0,0" /></g><g
           transform="translate(210.8039,357.9595)"
           id="g56"><path
             id="path58"
             style="fill:#f4f4f4;fill-opacity:1;fill-rule:nonzero;stroke:none"
             d="m 0,0 c -2.677,-1.206 -3.843,-3.317 -3.441,-6.25 0.04,-0.287 0.118,-1.412 0.118,-1.412 0,0 -1.569,-0.151 -2.381,-0.302 -3.307,-0.613 -5.547,-3.37 -5.905,-6.945 -0.358,-3.578 1.603,-7.011 4.756,-8.087 2.345,-0.8 4.731,-1.544 7.284,-1.365 0.971,0.068 1.95,0.009 2.926,0 16.094,-0.156 32.19,-0.172 48.285,-0.048 1.462,0.011 2.926,0.023 4.375,0.279 1.585,0.281 2.94,0.968 4.071,2.137 1.459,1.509 2.177,3.348 2.39,5.379 0.428,4.086 -1.761,9.282 -7.744,9.581 -0.278,0.013 -0.595,-0.047 -0.781,0.256 0.043,4.464 -2.048,6.403 -5.213,7.065 H 0.866 C 0.866,0.288 0.296,0.133 0,0" /></g><g
           transform="translate(236.3783,560.785)"
           id="g60"><path
             id="path62"
             style="fill:#f4f4f4;fill-opacity:1;fill-rule:nonzero;stroke:none"
             d="m 0,0 c 0.043,0.007 0.086,0.015 0.129,0.022 0.329,0.052 0.662,0.093 0.995,0.131 0.101,0.011 0.201,0.025 0.302,0.035 0.281,0.029 0.565,0.048 0.849,0.067 0.156,0.01 0.311,0.023 0.468,0.03 0.235,0.012 0.471,0.014 0.707,0.019 0.153,0.003 0.305,0.012 0.459,0.012 0.112,0 0.225,-0.001 0.337,-0.003 0.003,0 0.006,0 0.008,0 0.004,0 0.008,0 0.011,0 6.794,-0.075 12.736,-2.31 17.701,-7.018 5.377,-5.096 8.119,-11.481 8.023,-18.756 -0.153,-11.492 -7.796,-21.206 -18.48,-24.259 -0.021,-0.006 -0.042,-0.013 -0.062,-0.019 -0.132,-0.037 -0.266,-0.068 -0.398,-0.103 -0.987,-0.262 -1.998,-0.474 -3.032,-0.619 -0.057,-0.008 -0.115,-0.014 -0.172,-0.022 -0.36,-0.048 -0.722,-0.091 -1.088,-0.125 -0.124,-0.011 -0.249,-0.018 -0.374,-0.028 -0.301,-0.023 -0.602,-0.045 -0.905,-0.058 -0.189,-0.008 -0.38,-0.01 -0.57,-0.014 -0.001,0 -0.001,0 -0.002,0 -0.192,-0.004 -0.382,-0.014 -0.575,-0.014 -0.093,0 -0.189,0 -0.283,0.001 -0.003,0 -0.006,0 -0.008,0 -13.624,0.147 -25.266,11.267 -25.192,25.551 C -21.087,-12.609 -11.963,-1.938 0,0 m 3.926,-62.32 c 0.133,-0.002 0.271,-0.002 0.405,-0.002 9.954,0 19.289,3.826 26.287,10.774 6.943,6.893 10.839,16.103 10.969,25.933 0.01,0.744 -0.006,1.481 -0.038,2.213 -0.415,9.637 -4.395,18.283 -11.602,25.116 -7.017,6.652 -15.608,10.083 -25.532,10.198 -0.168,0.002 -0.338,0.004 -0.506,0.004 -20.109,0 -36.555,-16.61 -36.661,-37.026 -0.044,-8.46 2.795,-16.288 7.584,-22.563 6.703,-8.785 17.236,-14.523 29.094,-14.647" /></g><g
           transform="translate(380.091,347.3925)"
           id="g64"><path
             id="path66"
             style="fill:#f4f4f4;fill-opacity:1;fill-rule:nonzero;stroke:none"
             d="m 0,0 c -0.142,-0.074 -0.283,-0.149 -0.426,-0.22 -0.126,-0.062 -0.254,-0.119 -0.381,-0.178 -0.144,-0.067 -0.288,-0.135 -0.435,-0.198 -0.129,-0.057 -0.261,-0.108 -0.393,-0.161 -0.147,-0.06 -0.294,-0.121 -0.444,-0.176 -0.133,-0.051 -0.269,-0.096 -0.405,-0.143 -0.15,-0.052 -0.299,-0.105 -0.451,-0.153 -0.138,-0.044 -0.279,-0.084 -0.418,-0.124 -0.152,-0.044 -0.304,-0.089 -0.458,-0.13 -0.142,-0.037 -0.286,-0.07 -0.43,-0.104 -0.154,-0.036 -0.308,-0.073 -0.463,-0.105 -0.146,-0.03 -0.294,-0.056 -0.441,-0.083 -0.157,-0.028 -0.313,-0.057 -0.471,-0.081 -0.149,-0.023 -0.299,-0.041 -0.449,-0.06 -0.159,-0.02 -0.318,-0.041 -0.478,-0.057 -0.152,-0.015 -0.305,-0.025 -0.458,-0.036 -0.161,-0.012 -0.322,-0.025 -0.484,-0.032 -0.155,-0.007 -0.311,-0.009 -0.466,-0.012 -0.117,-0.003 -0.232,-0.01 -0.35,-0.01 -0.092,0 -0.186,0.001 -0.279,0.003 -9.769,0.151 -18.284,8.745 -17.794,18.271 -0.017,0.299 -0.024,0.598 -0.023,0.895 10e-4,0.099 0.008,0.197 0.01,0.295 0.005,0.199 0.008,0.397 0.021,0.595 0.007,0.111 0.022,0.221 0.031,0.332 0.016,0.184 0.03,0.367 0.052,0.55 0.015,0.116 0.036,0.23 0.053,0.345 0.026,0.176 0.049,0.353 0.081,0.528 0.021,0.116 0.049,0.231 0.073,0.346 0.036,0.173 0.069,0.346 0.11,0.517 0.029,0.118 0.064,0.235 0.095,0.353 0.044,0.166 0.086,0.333 0.135,0.497 0.036,0.119 0.078,0.235 0.116,0.353 0.052,0.162 0.103,0.325 0.161,0.485 0.041,0.117 0.089,0.231 0.134,0.347 0.061,0.159 0.12,0.318 0.186,0.476 0.048,0.114 0.101,0.225 0.151,0.338 0.07,0.156 0.138,0.313 0.212,0.468 0.054,0.112 0.113,0.222 0.17,0.333 0.077,0.152 0.153,0.305 0.235,0.455 0.059,0.109 0.124,0.216 0.186,0.325 0.085,0.148 0.168,0.298 0.258,0.444 0.065,0.107 0.135,0.211 0.202,0.316 0.092,0.144 0.183,0.29 0.279,0.431 0.071,0.104 0.146,0.205 0.218,0.308 0.1,0.14 0.198,0.281 0.301,0.418 0.076,0.101 0.156,0.199 0.234,0.299 0.105,0.135 0.21,0.27 0.318,0.402 0.082,0.098 0.167,0.194 0.251,0.29 0.111,0.13 0.221,0.26 0.336,0.386 0.086,0.095 0.176,0.186 0.264,0.279 0.117,0.124 0.233,0.249 0.354,0.37 0.091,0.091 0.186,0.18 0.279,0.27 0.122,0.117 0.243,0.235 0.368,0.35 0.097,0.089 0.198,0.174 0.297,0.261 0.126,0.111 0.251,0.222 0.38,0.329 0.102,0.085 0.206,0.167 0.31,0.25 0.13,0.104 0.26,0.209 0.392,0.309 0.107,0.081 0.217,0.159 0.325,0.238 0.134,0.097 0.268,0.195 0.404,0.289 0.112,0.076 0.226,0.149 0.339,0.224 0.137,0.09 0.273,0.181 0.413,0.267 0.116,0.073 0.235,0.141 0.353,0.211 0.14,0.083 0.279,0.166 0.421,0.245 0,0 0,0.001 0,0.001 0.121,0.067 0.243,0.13 0.365,0.195 0.143,0.075 0.285,0.151 0.43,0.223 0.125,0.062 0.251,0.12 0.377,0.179 0.145,0.069 0.29,0.137 0.437,0.201 0.129,0.057 0.259,0.109 0.389,0.163 0.147,0.06 0.293,0.121 0.442,0.177 0.133,0.051 0.267,0.097 0.401,0.145 0.149,0.052 0.297,0.105 0.446,0.153 0.136,0.045 0.274,0.085 0.412,0.125 0.149,0.045 0.299,0.09 0.45,0.13 0.139,0.038 0.28,0.071 0.42,0.105 0.151,0.037 0.302,0.073 0.454,0.106 0.143,0.03 0.286,0.056 0.429,0.083 0.152,0.028 0.304,0.057 0.457,0.081 0.145,0.023 0.29,0.042 0.436,0.061 0.153,0.02 0.306,0.04 0.46,0.056 0.147,0.015 0.294,0.026 0.441,0.037 0.154,0.011 0.308,0.023 0.463,0.03 0.148,0.007 0.296,0.01 0.445,0.013 h 0.01 c 0.1,0.002 0.2,0.008 0.301,0.008 0.099,0 0.2,-0.001 0.299,-0.002 0.003,-10e-4 0.006,0 0.01,-10e-4 C 1.523,34.314 10.244,25.989 10.068,15.805 10.063,15.518 10.05,15.231 10.03,14.945 10.024,14.858 10.012,14.772 10.005,14.686 9.988,14.487 9.971,14.287 9.947,14.088 9.933,13.982 9.914,13.877 9.899,13.772 9.874,13.594 9.85,13.415 9.819,13.237 9.798,13.122 9.772,13.007 9.749,12.891 9.716,12.725 9.686,12.559 9.648,12.394 9.621,12.277 9.589,12.162 9.559,12.045 9.519,11.883 9.48,11.72 9.434,11.558 9.402,11.444 9.364,11.331 9.33,11.217 9.281,11.056 9.234,10.893 9.18,10.733 9.142,10.619 9.098,10.507 9.057,10.393 9.001,10.236 8.946,10.077 8.885,9.921 8.841,9.806 8.79,9.692 8.743,9.578 8.68,9.425 8.619,9.272 8.552,9.121 8.502,9.009 8.447,8.899 8.395,8.789 8.324,8.637 8.255,8.485 8.18,8.335 8.125,8.227 8.065,8.12 8.009,8.012 7.93,7.864 7.853,7.714 7.771,7.567 7.711,7.461 7.646,7.356 7.584,7.25 7.499,7.106 7.415,6.96 7.326,6.817 7.261,6.713 7.191,6.611 7.124,6.508 7.032,6.367 6.942,6.225 6.846,6.086 6.776,5.984 6.701,5.884 6.628,5.783 6.53,5.647 6.434,5.51 6.333,5.377 6.258,5.277 6.178,5.181 6.1,5.082 5.996,4.951 5.894,4.818 5.786,4.689 5.706,4.593 5.623,4.5 5.541,4.406 5.431,4.279 5.322,4.151 5.209,4.027 5.123,3.933 5.034,3.842 4.946,3.75 4.831,3.629 4.718,3.508 4.6,3.39 4.51,3.3 4.417,3.213 4.324,3.124 4.204,3.009 4.085,2.892 3.962,2.78 3.867,2.693 3.768,2.609 3.671,2.524 3.547,2.415 3.423,2.305 3.296,2.2 3.195,2.115 3.09,2.034 2.987,1.952 2.859,1.85 2.733,1.747 2.602,1.649 2.497,1.569 2.388,1.492 2.28,1.414 2.148,1.319 2.016,1.222 1.882,1.13 1.771,1.054 1.658,0.982 1.546,0.909 1.41,0.82 1.275,0.73 1.136,0.644 1.021,0.573 0.902,0.505 0.785,0.436 0.646,0.355 0.508,0.272 0.367,0.194 c 0,0 0,0 0,0 C 0.246,0.127 0.122,0.064 0,0 m -7.951,43.045 c -0.158,0.003 -0.316,0.005 -0.473,0.005 -7.131,0 -14.171,-3.119 -19.313,-8.556 -4.818,-5.094 -7.424,-11.738 -7.192,-18.297 -0.083,-2.506 0.226,-4.985 0.9,-7.376 1.103,-3.922 3.19,-7.608 6.159,-10.782 5.035,-5.384 12.017,-8.535 19.158,-8.646 0.136,-0.002 0.275,-0.003 0.411,-0.003 7.128,0 13.883,2.851 19.02,8.029 4.902,4.941 7.78,11.589 7.895,18.239 0.08,4.613 -1.09,9.022 -3.187,12.905 -4.522,8.372 -13.368,14.289 -23.378,14.482" /></g><g
           transform="translate(396.5526,417.3221)"
           id="g68"><path
             id="path70"
             style="fill:#181a3c;fill-opacity:1;fill-rule:nonzero;stroke:none"
             d="m 0,0 c 0.29,11.609 0.579,23.219 0.865,34.828 0.2,8.097 0.394,16.194 0.59,24.291 0.199,8.195 0.394,16.389 0.596,24.583 0.206,8.39 0.425,16.78 0.626,25.17 0.119,4.975 0.214,9.95 0.32,14.925 -10.144,0.01 -20.287,0.021 -30.431,0.026 -0.974,0 -1.948,-0.036 -2.923,-0.056 -0.165,-5.951 -0.34,-11.902 -0.491,-17.853 -0.209,-8.196 -0.397,-16.393 -0.598,-24.589 -0.178,-7.269 -0.363,-14.537 -0.545,-21.806 -0.129,-5.17 -0.257,-10.914 -0.387,-16.084 L -0.028,-1.264 C -0.019,-0.897 -0.009,-0.368 0,0" /></g><g
           transform="translate(395.9232,392.3823)"
           id="g72"><path
             id="path74"
             style="fill:#f4f4f4;fill-opacity:1;fill-rule:nonzero;stroke:none"
             d="m 0,0 -32.333,45.088 c -0.087,-3.609 -0.178,-7.219 -0.262,-10.828 -0.16,-6.831 -0.303,-13.663 -0.459,-20.494 -0.014,-0.648 -0.125,-2.657 -0.125,-2.657 0,0 -0.921,1.581 -1.202,2.023 -2.804,4.405 -5.589,8.822 -8.385,13.232 -7.343,11.583 -14.692,23.162 -22.034,34.745 -10.452,16.488 -20.902,32.978 -31.35,49.468 -4.754,7.503 -9.495,15.014 -14.252,22.515 -2.521,3.976 -5.061,7.94 -7.593,11.909 0.031,-0.733 0.047,-1.469 0.038,-2.213 -0.131,-9.83 -4.027,-19.04 -10.97,-25.934 -6.997,-6.947 -16.333,-10.773 -26.286,-10.773 -0.135,0 -0.273,0 -0.406,0.002 -11.858,0.124 -22.39,5.862 -29.094,14.646 0.002,-0.926 0.007,-3.197 0.006,-4.192 -0.008,-44.948 -0.012,-89.895 0.005,-134.842 0.002,-4.975 0.191,-9.948 0.449,-14.917 v -0.913 h 47.874 v 5.095 c 0.17,4.086 0.322,8.173 0.321,12.264 -0.003,37.888 -0.002,75.776 -0.002,113.664 v 2.442 c 0,0 0.987,-1.462 1.341,-2.021 6.953,-10.964 13.904,-21.93 20.854,-32.897 12.358,-19.501 24.69,-39.019 37.081,-58.498 8.253,-12.973 16.333,-26.055 24.804,-38.889 0.506,-0.766 1.61,-2.429 2.118,-3.194 -0.673,2.391 -0.982,4.871 -0.9,7.377 -0.231,6.559 2.374,13.203 7.193,18.297 5.142,5.437 12.181,8.555 19.313,8.555 0.156,0 0.315,-0.002 0.473,-0.005 10.01,-0.192 18.856,-6.109 23.378,-14.482 -0.003,0.504 -0.005,1.135 -0.001,1.275 C -0.267,-10.101 -0.131,-5.051 0,0" /></g><path
           id="path76"
           style="fill:#181a3c;fill-opacity:1;fill-rule:nonzero;stroke:none"
           d="m 131.677,103.315 h 9.588 v 11.748 h -9.588 z m -21.22,24.083 h 32.671 c 3.82,-0.089 8.347,-0.089 11.719,-3.023 3.379,-2.933 3.379,-6.795 3.379,-10.656 0,-7.798 -0.094,-13.003 -8.968,-15.773 2.217,-0.498 4.441,-1.003 6.303,-3.104 2.13,-2.511 2.304,-5.281 2.397,-7.969 v -6.372 h 4.174 V 68.166 H 150.32 c -6.481,0.082 -8.964,0.587 -9.054,6.127 v 17.949 h -9.589 V 68.166 h -21.22 v 12.335 h 3.997 v 34.562 h -3.997 z" /><path
           id="path78"
           style="fill:#181a3c;fill-opacity:1;fill-rule:nonzero;stroke:none"
           d="m 194.326,115.063 h -9.321 V 80.501 h 9.321 z m 0.715,12.335 c 5.949,0 11.538,-0.253 14.469,-5.124 1.863,-3.104 1.863,-7.04 1.863,-11.912 V 85.87 c 0,-3.356 0,-6.965 -0.794,-9.817 -2.224,-7.805 -9.502,-7.887 -14.917,-7.887 h -11.365 c -3.906,0 -9.054,0.082 -12.519,2.77 -3.906,3.104 -3.906,7.634 -3.906,11.489 v 28.947 c 0,3.439 0,6.877 1.328,9.817 2.664,6.209 8.881,6.209 13.588,6.209 z" /><path
           id="path80"
           style="fill:#181a3c;fill-opacity:1;fill-rule:nonzero;stroke:none"
           d="m 238.427,80.501 h 9.942 v 12.498 h -9.942 z m 0,23.401 h 9.942 v 11.161 h -9.942 z m -21.04,23.496 h 31.069 c 5.155,0 11.364,0 14.563,-3.78 2.129,-2.517 2.397,-6.119 2.397,-10.315 0,-8.896 -1.242,-13.092 -9.589,-14.518 8.614,-2.265 9.589,-5.867 9.589,-12.915 0,-8.309 -0.621,-12 -3.018,-14.518 -3.105,-3.186 -8.166,-3.186 -13.762,-3.186 h -31.249 v 12.335 h 4.174 v 34.562 h -4.174 z" /><path
           id="path82"
           style="fill:#181a3c;fill-opacity:1;fill-rule:nonzero;stroke:none"
           d="m 299.654,115.063 h -9.321 V 80.501 h 9.321 z m 0.714,12.335 c 5.95,0 11.538,-0.253 14.469,-5.124 1.863,-3.104 1.863,-7.04 1.863,-11.912 V 85.87 c 0,-3.356 0,-6.965 -0.794,-9.817 -2.224,-7.805 -9.502,-7.887 -14.917,-7.887 h -11.364 c -3.906,0 -9.054,0.082 -12.52,2.77 -3.906,3.104 -3.906,7.634 -3.906,11.489 v 28.947 c 0,3.439 0,6.877 1.328,9.817 2.665,6.209 8.881,6.209 13.589,6.209 z" /><g
           transform="translate(374.3891,127.3977)"
           id="g84"><path
             id="path86"
             style="fill:#181a3c;fill-opacity:1;fill-rule:nonzero;stroke:none"
             d="m 0,0 v -21.9 h -12.079 v 9.565 h -6.303 v -34.562 h 4.086 v -12.334 h -25.22 v 12.334 h 4.087 v 34.562 h -6.303 V -21.9 H -53.804 V 0 Z" /></g><g
           transform="translate(378.2663,127.3977)"
           id="g88"><path
             id="path90"
             style="fill:#181a3c;fill-opacity:1;fill-rule:nonzero;stroke:none"
             d="M 0,0 H 25.393 V -12.335 H 21.22 v -34.562 h 4.173 V -59.231 H 0 v 12.334 h 4.087 v 34.562 H 0 Z" /></g><g
           transform="translate(450.7853,127.3977)"
           id="g92"><path
             id="path94"
             style="fill:#181a3c;fill-opacity:1;fill-rule:nonzero;stroke:none"
             d="m 0,0 v -19.13 h -14.469 v 6.795 h -9.321 v -34.562 h 9.321 v 9.477 H 0.715 v -21.811 h -25.747 c -2.578,0 -5.062,0 -7.552,0.586 -8.166,2.102 -8.253,8.808 -8.253,12.922 v 31.376 c 0,3.52 0,7.129 2.664,10.233 3.459,4.025 8.7,4.114 13.581,4.114 z" /></g><g
           transform="translate(499.68,127.3977)"
           id="g96"><path
             id="path98"
             style="fill:#181a3c;fill-opacity:1;fill-rule:nonzero;stroke:none"
             d="m 0,0 v -17.451 h -15.184 v 5.116 h -9.588 v -10.82 h 11.451 c 3.466,-0.089 7.458,-0.089 10.657,-2.101 4.527,-2.77 4.527,-7.3 4.527,-10.739 v -9.476 c -0.087,-4.032 -0.087,-9.401 -5.769,-12.253 -2.931,-1.507 -5.863,-1.507 -8.967,-1.507 h -28.058 v 18.12 h 16.159 v -5.786 h 9.588 v 11.912 h -12.52 c -3.639,0.082 -7.545,0.082 -10.743,3.186 -3.105,2.934 -3.285,6.29 -3.372,9.647 v 9.817 c 0.087,3.186 0.181,6.29 3.018,9.06 C -35.516,-0.089 -31.162,0 -27.61,0 Z" /></g></g></g></g></svg>